<svg width="72" height="76" viewBox="0 0 72 76" fill="none" xmlns="http://www.w3.org/2000/svg">
<path d="M26.8893 69.1146C21.8253 67.6931 17.3717 65.0758 13.4832 61.4206C12.2624 61.8493 11.019 62.278 9.75303 62.6841C9.16524 62.8646 8.57745 62.7969 7.96706 62.5713C6.88191 62.1652 6.2263 61.3755 5.75155 60.4052C5.09594 59.1191 4.25947 57.9458 3.60386 56.6597C3.01608 55.4639 2.157 54.426 1.65964 53.185C1.41096 52.5758 0.755356 52.1697 0.755356 51.4025C0.167568 50.4549 0.732749 49.62 1.07186 48.7852C1.16229 48.5596 1.27532 48.2662 1.47879 48.176C2.29265 47.815 2.69958 47.0027 3.37779 46.5063C3.69429 46.2807 4.0334 46.0325 4.39512 45.7617C3.87515 43.167 3.42301 40.5722 3.42301 37.9097C3.42301 35.2699 3.89776 32.7202 4.39512 30.1931C3.51344 29.3809 2.69958 28.5912 1.8405 27.8466C0.958821 27.0794 0.438855 26.1318 0.551891 25.139C0.619713 24.5975 0.777963 24.0108 1.04925 23.5596C1.88572 22.2283 2.65436 20.8294 3.46822 19.4756C4.12383 18.3926 4.68901 17.2644 5.41244 16.204C5.79676 15.6625 6.02284 15.0307 6.40716 14.4666C7.1532 13.4061 8.64527 12.8872 9.86606 13.2482C10.9512 13.5641 11.9685 14.0379 13.0763 14.241C13.1893 14.2635 13.2798 14.4215 13.3928 14.5343C17.3038 10.9016 21.7575 8.30686 26.8667 6.79513C27.0702 6.18592 27.1154 5.53159 27.364 4.89982C27.5449 4.42599 27.4997 3.83935 27.5901 3.3204C27.8388 1.96661 28.6753 1.1769 29.8734 0.770758C30.303 0.635379 30.7325 0.5 31.2525 0.5C34.4175 0.545126 37.5825 0.545126 40.7475 0.5C41.6518 0.5 42.4204 0.861011 43.1439 1.26715C43.7995 1.6056 44.1612 2.32762 44.3421 3.00451C44.6586 4.24549 44.8394 5.50903 45.0881 6.81769C50.1747 8.26173 54.6283 10.8565 58.5168 14.5117C59.7376 14.083 60.981 13.6543 62.247 13.2482C62.8348 13.0677 63.4226 13.1354 64.0329 13.361C65.1181 13.7671 65.7737 14.5569 66.2485 15.5271C66.9041 16.8132 67.7405 17.9865 68.3961 19.2726C68.9839 20.4684 69.843 21.5063 70.3404 22.7473C70.589 23.3565 71.2446 23.7626 71.2446 24.5298C71.8324 25.4774 71.2673 26.3123 70.9281 27.1471C70.8377 27.3727 70.7247 27.6661 70.5212 27.7563C69.7074 28.1173 69.3004 28.9296 68.6222 29.426C68.3057 29.6516 67.9666 29.8998 67.6049 30.1706C68.1248 32.7653 68.577 35.3601 68.577 38.0226C68.577 40.6625 68.1701 43.2121 67.6049 45.7392C68.4866 46.5514 69.3004 47.3412 70.1595 48.0857C71.0412 48.8529 71.5611 49.8005 71.4481 50.7933C71.3803 51.3348 71.2447 51.9215 70.9508 52.3727C70.1369 53.6814 69.3682 55.0352 68.577 56.3664C67.5823 58.0135 66.7684 59.796 65.6155 61.3529C65.412 62.2103 64.5981 62.278 64.0103 62.5939C63.3773 62.9323 62.7443 62.8421 62.0435 62.639C61.0036 62.3457 60.0089 61.8267 58.9237 61.6913C58.8107 61.6688 58.7203 61.5108 58.6072 61.398C54.6962 65.0758 50.2652 67.6931 45.0881 69.1597C44.8394 70.3782 44.6133 71.6417 44.3421 72.8827C44.0708 74.1011 43.2569 74.8682 42.104 75.2292C41.6744 75.3646 41.2223 75.5 40.7249 75.5C37.5599 75.4549 34.3949 75.4549 31.2299 75.5C30.3256 75.5 29.5569 75.139 28.8335 74.7329C28.1779 74.3944 27.7936 73.6724 27.6579 72.9955C27.4093 71.6643 27.1606 70.4233 26.8893 69.1146ZM28.3588 49.2365C28.8109 48.9883 29.3309 48.8303 29.3535 48.2888C29.3987 47.4765 29.5117 46.6417 29.3309 45.8745C29.0144 44.5659 28.4492 43.3023 28.1101 41.9937C27.884 41.1588 27.3867 40.3691 27.4093 39.4666C26.6858 37.6841 26.2337 35.8114 25.6233 34.0063C25.1259 32.5171 24.7642 30.9829 24.2216 29.5162C23.9277 28.704 23.8599 27.8014 23.3174 27.0794C23.2721 27.0117 23.2495 26.9666 23.2495 26.9666C22.6391 26.5605 22.0061 26.6958 21.4636 26.6958C21.1471 26.9892 20.8758 27.2374 20.6271 27.463C20.6045 28.185 20.0845 28.7491 20.175 29.4486C19.3837 31.2085 19.0446 33.1038 18.389 34.9088C18.0499 35.8339 17.8464 36.7816 17.5751 37.7292C17.3264 38.6769 16.7839 39.5343 16.7839 40.5496C15.9248 42.4675 15.4953 44.5208 14.8623 46.5289C14.704 47.0253 14.6136 47.4991 14.9301 47.9729C15.0205 48.1083 14.9753 48.3114 14.9753 48.2888C15.337 48.6724 15.6083 48.9431 15.8344 49.2139C16.2639 49.2139 16.716 49.2139 17.1908 49.2139C17.5073 48.8078 17.8238 48.4242 18.1177 48.0406C18.0499 46.7545 18.3212 45.8971 18.9089 44.5208C21.1245 44.5208 23.34 44.5208 25.5555 44.5208C25.7363 45.2428 25.8268 45.9422 26.0754 46.5966C26.1885 46.8673 26.3015 47.1381 26.2563 47.4088C26.1885 48.2437 26.4598 48.898 27.4093 49.2139C27.6353 49.2365 27.9744 49.2365 28.3588 49.2365ZM33.6488 49.2365C34.2592 49.1913 34.9601 49.3718 35.4574 48.8755C35.6383 48.6498 35.7965 48.4242 36.0226 48.1083C36.0226 45.852 36.0226 43.4829 36.0226 41.1137C37.6729 41.1137 39.3007 41.046 40.9058 41.1363C41.8779 41.1814 42.6691 40.8881 43.4378 40.4143C43.7995 40.1886 44.116 39.8502 44.4325 39.5343C45.269 38.722 45.6759 37.7292 45.6985 36.556C45.6985 34.7058 45.6985 32.8782 45.6985 31.028C45.6985 30.7572 45.6307 30.4639 45.5629 30.1931C45.3142 29.2229 44.7942 28.5009 44.0934 27.8691C43.2795 27.1245 42.33 26.6733 41.1997 26.6733C38.6677 26.6733 36.1583 26.6733 33.6036 26.6733C33.355 26.944 33.1063 27.2148 32.8124 27.4856C32.8124 34.435 32.8124 41.4296 32.8124 48.4468C33.1063 48.6949 33.3776 48.9657 33.6488 49.2365ZM49.926 49.2365C51.4859 49.2365 53.0684 49.2365 54.6283 49.2365C54.8996 48.9657 55.1709 48.6949 55.4422 48.4468C55.4422 48.0181 55.4422 47.6119 55.4422 47.1832C55.4422 47.1381 55.4422 47.1155 55.4422 47.093C55.1031 46.4612 54.5831 46.0776 53.9049 46.0099C53.9049 40.6173 53.9049 35.2473 53.9049 29.9901C54.4023 29.7419 54.8318 29.5162 55.3292 29.2455C55.397 28.6588 55.4422 28.0496 55.4874 27.6209C55.1257 27.2148 54.877 26.9215 54.6736 26.6958C53.0458 26.6958 51.4633 26.6958 50.0617 26.6958C49.6774 27.0343 49.4061 27.2825 49.067 27.5984C49.1348 28.1399 49.2252 28.7491 49.293 29.2681C49.8356 29.5388 50.2652 29.7644 50.6495 29.9675C50.6495 35.3375 50.6495 40.7076 50.6495 46.0325C50.4234 46.0776 50.1747 46.0325 50.0843 46.1453C49.7678 46.4612 49.2252 46.5514 49.1122 47.0704C49.1122 47.5217 49.1122 47.9729 49.1122 48.4242C49.3835 48.6949 49.6548 48.9657 49.926 49.2365Z" fill="black"/>
<path d="M24.3575 41.0679C23.0237 41.113 21.622 41.1356 20.2204 41.1807C20.1751 41.1807 20.1073 41.2709 19.9717 41.3838C19.9943 39.9848 20.7855 38.8567 20.876 37.5706C21.5542 36.4424 21.622 35.1112 22.0742 33.8477C22.2098 33.983 22.4133 34.1184 22.4133 34.2312C22.4359 35.2014 23.001 36.0363 23.1819 36.9614C23.3175 37.5931 23.6793 38.2024 23.7697 38.8341C23.8601 39.6464 24.4027 40.2556 24.3575 41.0679Z" fill="black"/>
<path d="M42.5563 36.6915C42.398 36.9397 42.2624 37.1879 42.0815 37.4135C41.765 37.7745 41.3581 37.9776 40.8381 37.955C39.2556 37.9325 37.6731 37.955 36.0454 37.955C36.0454 35.27 36.0454 32.585 36.0454 29.8323C37.6957 29.8323 39.3913 29.8097 41.0642 29.8323C41.8555 29.8549 42.5337 30.6671 42.5563 31.5245C42.5563 32.946 42.5563 34.3675 42.5563 35.789C42.5563 36.1049 42.5563 36.3982 42.5563 36.6915Z" fill="black"/>
</svg>
